<?xml version="1.0" encoding="utf-8"?><svg xmlns="http://www.w3.org/2000/svg" x="0px" y="0px" viewBox="0 0 25 11" enable-background="new 0 0 25 11" xml:space="preserve">
<g>
	<path fill="#2D2E2D" d="M21.1,3.7C20.5,3.6,20,3.4,19.5,3c-0.4-0.3-0.8-0.7-1.1-1c-0.9-0.9-1.8-1.8-3.1-1.8c-0.2,0-0.4,0-0.6,0.1
		c-0.8,0.1-1.6,0.6-2.2,1.3c-0.6-0.7-1.3-1.2-2.2-1.3c-0.2,0-0.4-0.1-0.6-0.1C8.4,0.2,7.5,1.1,6.7,2C6.3,2.3,5.9,2.7,5.5,3
		C4.9,3.5,4.2,3.7,3.4,3.7c-1,0-1.9-0.4-2.6-1L0.2,2.1v0.8c0,6.8,4.4,7.8,7.1,7.8c1.5,0,2.8-0.3,3.2-0.5c0.8-0.4,1.4-0.9,2-1.5
		c0.5,0.7,1.2,1.2,2,1.5c0.4,0.2,1.7,0.5,3.2,0.5c1,0,2.3-0.1,3.5-0.7c0.2-0.1,0.5-0.3,0.7-0.4c1.7-1,3-3,3-6.8V2.1l-0.6,0.5
		c-0.6,0.6-1.5,1-2.4,1L21.1,3.7z M21.1,9.3c-1.1,0.6-2.3,0.8-3.5,0.8c-1.5,0-2.7-0.3-3-0.5c-0.8-0.4-1.5-1-2-1.7l-0.3-0.4l-0.3,0.4
		c-0.5,0.7-1.1,1.3-2,1.7C10,9.7,8.8,10,7.3,10c-2.8,0-6.1-1.1-6.4-6.4c0.7,0.5,1.6,0.7,2.5,0.7c0.9,0,1.8-0.3,2.5-0.8
		c0.4-0.3,0.8-0.7,1.2-1.1C7.9,1.7,8.7,1,9.8,1c0.1,0,0.3,0,0.5,0c0.8,0.1,1.5,0.6,2,1.4l0.3,0.4l0.3-0.4c0.5-0.8,1.2-1.3,2-1.4
		c0.2,0,0.3,0,0.5,0c1.1,0,1.8,0.8,2.7,1.6c0.4,0.4,0.8,0.8,1.2,1.1c0.6,0.4,1.3,0.7,2,0.8c0.2,0,0.3,0,0.5,0c0.1,0,0.1,0,0.2,0
		c0.8,0,1.6-0.3,2.3-0.7c-0.1,2.6-1,4.2-2.3,5.2C21.6,9,21.4,9.1,21.1,9.3z"/>
	<path fill="#2D2E2D" d="M17.7,11c-1.5,0-2.9-0.3-3.3-0.5c-0.7-0.3-1.4-0.8-1.9-1.4c-0.5,0.6-1.1,1.1-1.9,1.4
		C10.2,10.7,8.9,11,7.3,11C4.6,11,0,10,0,2.9V1.6l0.9,0.9c0.6,0.6,1.5,1,2.4,1c0.7,0,1.4-0.2,2-0.6c0.4-0.3,0.7-0.6,1.1-1
		C7.4,0.9,8.4,0,9.8,0c0.2,0,0.4,0,0.6,0.1c0.8,0.1,1.5,0.6,2.1,1.2c0.6-0.7,1.3-1.1,2.1-1.2C14.8,0,15,0,15.2,0
		c1.4,0,2.4,1,3.3,1.8l0,0c0.4,0.3,0.7,0.7,1.1,1c0.4,0.3,1,0.5,1.5,0.6l0.7,0c0.9,0,1.7-0.4,2.3-1L25,1.6v1.3c0,4.2-1.7,6.1-3.1,7
		c-0.2,0.1-0.5,0.3-0.7,0.4C20.3,10.8,19.1,11,17.7,11z M12.5,8.3l0.2,0.2c0.5,0.6,1.1,1.1,1.9,1.5c0.4,0.2,1.7,0.5,3.1,0.5
		c1.4,0,2.5-0.2,3.4-0.7c0.2-0.1,0.5-0.3,0.7-0.4c1.9-1.1,2.9-3.4,2.9-6.5V2.7l-0.2,0.2c-0.7,0.6-1.6,1-2.5,1.1l0,0l-0.7,0
		c-0.6-0.1-1.2-0.3-1.8-0.7c-0.4-0.3-0.8-0.7-1.2-1l0,0c-0.8-0.8-1.7-1.7-3-1.7c-0.2,0-0.4,0-0.5,0.1c-0.8,0.1-1.5,0.6-2,1.3L12.5,2
		l-0.2-0.2c-0.6-0.7-1.3-1.1-2-1.3c-0.2,0-0.4-0.1-0.5-0.1c-1.2,0-2.1,0.9-3,1.7C6.4,2.5,6,2.9,5.6,3.2C5,3.7,4.2,3.9,3.4,3.9
		c-1,0-2-0.4-2.7-1.1L0.4,2.7v0.3c0,6.6,4.3,7.6,6.9,7.6c1.5,0,2.8-0.3,3.1-0.5c0.8-0.4,1.4-0.9,1.9-1.5L12.5,8.3z M17.7,10.3
		c-1.6,0-2.8-0.3-3-0.5c-0.9-0.4-1.6-1-2-1.8l-0.1-0.1L12.4,8c-0.5,0.8-1.2,1.4-2,1.8c-0.3,0.1-1.5,0.5-3,0.5
		c-2.9,0-6.3-1.1-6.6-6.6l0-0.5L1,3.5c0.7,0.5,1.5,0.7,2.3,0.7c0.9,0,1.7-0.3,2.4-0.8C6.2,3.1,6.6,2.7,7,2.3
		c0.9-0.8,1.7-1.6,2.8-1.6c0.2,0,0.3,0,0.5,0c0.8,0.2,1.6,0.7,2.1,1.5l0.1,0.1l0.1-0.1c0.6-0.8,1.3-1.4,2.1-1.5c0.2,0,0.3,0,0.5,0
		c1.1,0,1.9,0.8,2.8,1.6l-0.1,0.2L18,2.3c0.4,0.4,0.8,0.8,1.2,1.1c0.6,0.4,1.2,0.7,1.9,0.7c0.1,0,0.3,0,0.5,0c0.1,0,0.1,0,0.2,0l0,0
		c0.8,0,1.5-0.3,2.2-0.7l0.4-0.2l0,0.5c-0.1,2.4-0.9,4.2-2.4,5.3c-0.2,0.2-0.5,0.3-0.7,0.5C20.3,10,19.1,10.3,17.7,10.3z M12.5,7.1
		L13,7.8C13.4,8.5,14,9,14.8,9.4c0.2,0.1,1.4,0.4,2.9,0.4c1.3,0,2.4-0.3,3.4-0.7c0.2-0.1,0.4-0.3,0.6-0.4c1.2-0.9,2-2.5,2.1-4.6
		c-0.6,0.3-1.3,0.5-2,0.5c-0.1,0-0.1,0-0.2,0c-0.2,0-0.4,0-0.5,0c-0.8-0.1-1.5-0.4-2.1-0.8c-0.5-0.3-0.9-0.7-1.2-1.1l0,0
		c-0.8-0.8-1.5-1.5-2.5-1.5c-0.1,0-0.3,0-0.4,0c-0.7,0.1-1.4,0.6-1.9,1.3l-0.4,0.7L12,2.6c-0.5-0.7-1.2-1.2-1.9-1.3
		c-0.1,0-0.3,0-0.4,0c-1,0-1.7,0.7-2.5,1.5C6.8,3.1,6.4,3.5,6,3.8C5.3,4.3,4.3,4.6,3.4,4.6c-0.8,0-1.5-0.2-2.2-0.6
		c0.4,4.7,3.6,5.7,6.2,5.7c1.5,0,2.6-0.3,2.9-0.4C11,9,11.6,8.5,12,7.8L12.5,7.1z"/>
</g>
</svg>
